# xmcd
# 
# Track frame offsets:
#     150
#     12650
#     26860
#     39471
#     49836
#     61587
#     75017
#     89742
#     99957
#     109284
# 
# Disc length: 1633
# 
# Revision: 0
# Processed by: cddbd v1.5.2PL0 Copyright (c) Steve Scherf et al.
# Submitted via: fre:ac v1.0.17
# 
DISCID=75065f0a
DTITLE=Johnny Paycheck - Johnny Paycheck
DYEAR=2004
DGENRE=Country
TTITLE0=Take This Job And Shove It
TTITLE1=The Only Hell My Mama Ever Raised
TTITLE2=She's Got It All
TTITLE3=A-11
TTITLE4=For A Minute There
TTITLE5=Somebody Loves Me
TTITLE6=Green Green Grass Of Home
TTITLE7=Motel Time Again
TTITLE8=Mr Love Maker
TTITLE9=Slide Off Your Satin Sheets
EXTD=
EXTT0=
EXTT1=
EXTT2=
EXTT3=
EXTT4=
EXTT5=
EXTT6=
EXTT7=
EXTT8=
EXTT9=
PLAYORDER=
